<svg width="23" height="25" viewBox="0 0 23 25" fill="none" xmlns="http://www.w3.org/2000/svg">
<path d="M19.2403 15.5037C18.9351 14.8027 18.7634 14.0146 18.7634 13.1848C18.7634 12.8328 18.7946 12.4938 18.8536 12.1669C19.105 10.7531 19.8749 9.5853 20.9362 8.82827C21.127 8.69393 21.3264 8.5725 21.5327 8.46503C20.1004 6.20506 17.7663 6.0117 17.0328 5.93455C15.4374 5.76811 13.1883 7.17876 11.9674 7.17876H11.9345C10.7137 7.17876 8.46451 5.76811 6.86912 5.93455C6.07499 6.01604 3.53617 6.46607 2.00503 8.90548C1.46739 9.76131 1.05302 10.8147 0.883083 12.205C0.822283 12.7062 0.792856 13.2299 0.799754 13.8108C0.806707 14.3943 0.853545 14.9566 0.933259 15.5133C1.10498 16.702 1.42756 17.8196 1.84371 18.8467C2.30669 19.9859 2.88588 21.0082 3.50145 21.8783C4.86287 23.8057 6.40441 24.9186 7.27492 24.9386C9.06106 24.9785 10.6131 23.7702 11.8946 23.8014C11.9085 23.8058 11.9223 23.8058 11.9345 23.8049L11.9518 23.8032L11.9674 23.8049C11.9796 23.8058 11.9934 23.8049 12.0056 23.8006C13.2871 23.7677 14.8408 24.9768 16.6305 24.9369C17.4975 24.917 19.0409 23.8032 20.4022 21.8757C21.0177 21.0057 21.5969 19.9817 22.0565 18.8416C22.1258 18.6716 22.1917 18.4991 22.2575 18.3239C20.9258 17.9081 19.8298 16.8659 19.2403 15.5037Z" fill="white"/>
<path d="M15.0888 4.08213C16.4623 2.45726 16.4085 0.118362 16.2836 0.0152289C16.1605 -0.089684 13.8924 0.327297 12.486 1.89715C11.0796 3.46912 11.1664 5.86087 11.2912 5.96489C11.4143 6.06897 13.7172 5.7065 15.0888 4.08213Z" fill="white"/>
</svg>
