<svg width="27" height="26" viewBox="0 0 27 26" fill="none" xmlns="http://www.w3.org/2000/svg">
<g clip-path="url(#clip0)">
<path d="M4.40315 8.41064C3.9559 8.41064 3.57588 8.56658 3.2639 8.87883C2.95193 9.19097 2.79583 9.56541 2.79583 10.0023V16.7125C2.79583 17.1595 2.95187 17.5392 3.2639 17.8513C3.57588 18.1635 3.95568 18.3193 4.40299 18.3193C4.8504 18.3193 5.22747 18.1635 5.53431 17.8513C5.84136 17.5392 5.99478 17.1595 5.99478 16.7125V10.0023C5.99478 9.56525 5.83863 9.1908 5.52666 8.87883C5.21462 8.56674 4.83996 8.41064 4.40315 8.41064Z" fill="white"/>
<path d="M6.61927 19.0999C6.61927 19.5784 6.78575 19.9841 7.11861 20.317C7.45151 20.6496 7.85712 20.816 8.33579 20.816H9.49056L9.5063 24.3583C9.5063 24.8057 9.66234 25.1852 9.97437 25.4974C10.2863 25.8095 10.661 25.9655 11.0978 25.9655C11.5453 25.9655 11.9249 25.8095 12.2371 25.4974C12.5492 25.1852 12.7051 24.8057 12.7051 24.3583V20.816H14.8584V24.3583C14.8584 24.8057 15.0144 25.1852 15.3264 25.4974C15.6387 25.8095 16.0184 25.9655 16.4658 25.9655C16.9129 25.9655 17.2926 25.8095 17.6045 25.4974C17.9165 25.1852 18.0723 24.8057 18.0723 24.3583V20.816H19.2429C19.7107 20.816 20.1113 20.6499 20.4442 20.317C20.7772 19.9841 20.9436 19.5784 20.9436 19.0999V8.70715H6.61927V19.0999Z" fill="white"/>
<path d="M17.3237 2.38751L18.4313 0.343219C18.5042 0.208 18.478 0.10399 18.3535 0.0312429C18.218 -0.0312287 18.1141 -2.02371e-05 18.0415 0.124923L16.9178 2.18463C15.9295 1.74771 14.8843 1.52925 13.7814 1.52925C12.6788 1.52925 11.6332 1.74771 10.6449 2.18463L9.52134 0.124978C9.44876 3.44148e-05 9.34459 -0.0311741 9.20937 0.0312976C9.08448 0.104045 9.05863 0.208055 9.13143 0.343273L10.2394 2.38751C9.11569 2.95959 8.2213 3.75806 7.55532 4.78275C6.88956 5.80749 6.55659 6.92849 6.55659 8.14545H20.9909C20.9909 6.92849 20.658 5.80744 19.9922 4.78275C19.3261 3.75806 18.4371 2.95954 17.3237 2.38751ZM10.918 5.36003C10.7984 5.47972 10.6555 5.53952 10.489 5.53952C10.3225 5.53952 10.1821 5.47978 10.0676 5.36003C9.95329 5.24049 9.89596 5.0974 9.89596 4.93098C9.89596 4.7645 9.95329 4.62141 10.0676 4.50171C10.182 4.38201 10.3225 4.32233 10.489 4.32233C10.6552 4.32233 10.7983 4.38196 10.918 4.50171C11.0377 4.62141 11.0975 4.7645 11.0975 4.93098C11.0975 5.09746 11.0377 5.24033 10.918 5.36003ZM17.4955 5.36003C17.3809 5.47972 17.2404 5.53952 17.074 5.53952C16.9075 5.53952 16.7648 5.47978 16.645 5.36003C16.5253 5.24049 16.4657 5.0974 16.4657 4.93098C16.4657 4.7645 16.5253 4.62141 16.645 4.50171C16.7647 4.38201 16.9075 4.32233 17.074 4.32233C17.2404 4.32233 17.3809 4.38196 17.4955 4.50171C17.6096 4.62141 17.6671 4.7645 17.6671 4.93098C17.6671 5.09746 17.6098 5.24033 17.4955 5.36003Z" fill="white"/>
<path d="M24.2988 8.87096C23.9868 8.56412 23.6071 8.41064 23.1597 8.41064C22.723 8.41064 22.3485 8.56412 22.0365 8.87096C21.7244 9.1779 21.5682 9.55508 21.5682 10.0023V16.7125C21.5682 17.1595 21.7244 17.5392 22.0365 17.8513C22.3485 18.1635 22.723 18.3193 23.1597 18.3193C23.6071 18.3193 23.9868 18.1635 24.2988 17.8513C24.6112 17.5392 24.7671 17.1595 24.7671 16.7125V10.0023C24.7671 9.55503 24.6112 9.17785 24.2988 8.87096Z" fill="white"/>
</g>
<defs>
<clipPath id="clip0">
<rect width="25.9654" height="25.9654" fill="white" transform="translate(0.798767)"/>
</clipPath>
</defs>
</svg>
