<svg width="26" height="26" viewBox="0 0 26 26" fill="none" xmlns="http://www.w3.org/2000/svg">
<path d="M25.1403 17.9953C25.0813 19.3345 24.8647 20.2552 24.5544 21.053C24.2343 21.8999 23.7418 22.658 23.0966 23.2883C22.4662 23.9284 21.7029 24.4258 20.8657 24.7408C20.0631 25.051 19.1471 25.2676 17.8076 25.3267C16.4581 25.3907 16.0297 25.4055 12.6071 25.4055C9.18447 25.4055 8.75607 25.3907 7.4116 25.3317C6.07213 25.2726 5.15126 25.0559 4.35351 24.7458C3.50631 24.4258 2.74799 23.9334 2.1176 23.2883C1.4774 22.658 0.980121 21.8949 0.664828 21.0578C0.354536 20.2552 0.137929 19.3395 0.0788713 18.0003C0.0148124 16.6511 0 16.2228 0 12.8008C0 9.37884 0.0148124 8.95051 0.0738698 7.6063C0.132927 6.26709 0.349727 5.34639 0.660019 4.5486C0.980121 3.70176 1.4774 2.94358 2.1176 2.31331C2.74799 1.67323 3.51131 1.17586 4.34851 0.860815C5.15126 0.550583 6.06713 0.334017 7.40679 0.274969C8.75107 0.215731 9.17967 0.201115 12.6023 0.201115C16.0249 0.201115 16.4533 0.215731 17.7978 0.274969C19.1373 0.334017 20.0581 0.550583 20.8559 0.860815C22.5501 1.51571 23.8896 2.85492 24.5446 4.5486C24.8547 5.3512 25.0715 6.26709 25.1305 7.6063C25.1896 8.95051 25.2044 9.37884 25.2044 12.8008C25.2044 16.2228 25.1994 16.6511 25.1403 17.9953ZM22.8702 7.70477C22.8159 6.47385 22.6091 5.80914 22.4368 5.36601C22.0132 4.26798 21.1416 3.39653 20.0433 2.97301C19.6001 2.80068 18.9305 2.59392 17.7041 2.53988C16.3745 2.48064 15.9757 2.46602 12.6121 2.46602C9.24853 2.46602 8.84475 2.48064 7.5199 2.53988C6.28874 2.59392 5.62391 2.80068 5.18069 2.97301C4.63417 3.17496 4.13671 3.495 3.73292 3.91352C3.31433 4.32222 2.99423 4.81459 2.79224 5.36101C2.61988 5.80414 2.41308 6.47385 2.35902 7.69977C2.29977 9.02917 2.28515 9.42807 2.28515 12.791C2.28515 16.1539 2.29977 16.5576 2.35902 17.882C2.41308 19.113 2.61988 19.7777 2.79224 20.2208C2.99423 20.7674 3.31433 21.2646 3.73793 21.6685C4.14652 22.087 4.63898 22.4071 5.1857 22.6088C5.62891 22.7811 6.29874 22.9879 7.52491 23.0421C8.85456 23.1012 9.25354 23.116 12.6169 23.116C15.9855 23.116 16.3843 23.1012 17.7091 23.0421C18.9403 22.9879 19.6051 22.7811 20.0483 22.6088C20.5949 22.4071 21.0923 22.087 21.4961 21.6685C21.9147 21.2598 22.2348 20.7674 22.4368 20.2208C22.6091 19.7777 22.8159 19.1082 22.8702 17.882C22.9293 16.5526 22.9441 16.1539 22.9441 12.791C22.9441 9.42807 22.9293 9.03418 22.8702 7.70477Z" fill="white"/>
<path d="M12.6071 19.2755C9.03188 19.2755 6.13115 16.3755 6.13115 12.8008C6.13115 9.22614 9.03188 6.32615 12.6071 6.32615C16.1824 6.32615 19.083 9.22614 19.083 12.8008C19.083 16.3755 16.1824 19.2755 12.6071 19.2755ZM12.6071 8.60087C10.2877 8.60087 8.4063 10.4817 8.4063 12.8008C8.4063 15.12 10.2877 17.0008 12.6071 17.0008C14.9266 17.0008 16.8078 15.12 16.8078 12.8008C16.8078 10.4817 14.9266 8.60087 12.6071 8.60087Z" fill="white"/>
<path d="M20.8511 19.5315C20.8511 18.6968 20.1741 18.02 19.339 18.02C18.5042 18.02 17.8272 18.6968 17.8272 19.5315C17.8272 20.3665 18.5042 21.0431 19.339 21.0431C20.1741 21.0431 20.8511 20.3665 20.8511 19.5315Z" fill="white"/>
</svg>
