<svg width="211" height="26" viewBox="0 0 211 26" fill="none" xmlns="http://www.w3.org/2000/svg">
<path d="M25.1403 17.9953C25.0813 19.3345 24.8647 20.2552 24.5544 21.053C24.2343 21.8999 23.7418 22.658 23.0966 23.2883C22.4662 23.9284 21.7029 24.4258 20.8657 24.7408C20.0631 25.051 19.1471 25.2676 17.8076 25.3267C16.4581 25.3907 16.0297 25.4055 12.6071 25.4055C9.18447 25.4055 8.75607 25.3907 7.4116 25.3317C6.07213 25.2726 5.15126 25.0559 4.35351 24.7458C3.50631 24.4258 2.74799 23.9334 2.1176 23.2883C1.4774 22.658 0.980121 21.8949 0.664828 21.0578C0.354536 20.2552 0.137929 19.3395 0.0788713 18.0003C0.0148124 16.6511 0 16.2228 0 12.8008C0 9.37884 0.0148124 8.95051 0.0738698 7.6063C0.132927 6.26709 0.349727 5.34639 0.660019 4.5486C0.980121 3.70176 1.4774 2.94358 2.1176 2.31331C2.74799 1.67323 3.51131 1.17586 4.34851 0.860815C5.15126 0.550583 6.06713 0.334017 7.40679 0.274969C8.75107 0.215731 9.17967 0.201115 12.6023 0.201115C16.0249 0.201115 16.4533 0.215731 17.7978 0.274969C19.1373 0.334017 20.0581 0.550583 20.8559 0.860815C22.5501 1.51571 23.8896 2.85492 24.5446 4.5486C24.8547 5.3512 25.0715 6.26709 25.1305 7.6063C25.1896 8.95051 25.2044 9.37884 25.2044 12.8008C25.2044 16.2228 25.1994 16.6511 25.1403 17.9953ZM22.8702 7.70477C22.8159 6.47385 22.6091 5.80914 22.4368 5.36601C22.0132 4.26798 21.1416 3.39653 20.0433 2.97301C19.6001 2.80068 18.9305 2.59392 17.7041 2.53988C16.3745 2.48064 15.9757 2.46602 12.6121 2.46602C9.24853 2.46602 8.84475 2.48064 7.5199 2.53988C6.28874 2.59392 5.62391 2.80068 5.18069 2.97301C4.63417 3.17496 4.13671 3.495 3.73292 3.91352C3.31433 4.32222 2.99423 4.81459 2.79224 5.36101C2.61988 5.80414 2.41308 6.47385 2.35902 7.69977C2.29977 9.02917 2.28515 9.42807 2.28515 12.791C2.28515 16.1539 2.29977 16.5576 2.35902 17.882C2.41308 19.113 2.61988 19.7777 2.79224 20.2208C2.99423 20.7674 3.31433 21.2646 3.73793 21.6685C4.14652 22.087 4.63898 22.4071 5.1857 22.6088C5.62891 22.7811 6.29874 22.9879 7.52491 23.0421C8.85456 23.1012 9.25354 23.116 12.6169 23.116C15.9855 23.116 16.3843 23.1012 17.7091 23.0421C18.9403 22.9879 19.6051 22.7811 20.0483 22.6088C20.5949 22.4071 21.0923 22.087 21.4961 21.6685C21.9147 21.2598 22.2348 20.7674 22.4368 20.2208C22.6091 19.7777 22.8159 19.1082 22.8702 17.882C22.9293 16.5526 22.9441 16.1539 22.9441 12.791C22.9441 9.42807 22.9293 9.03418 22.8702 7.70477Z" fill="white"/>
<path d="M12.6071 19.2755C9.03188 19.2755 6.13115 16.3755 6.13115 12.8008C6.13115 9.22614 9.03188 6.32615 12.6071 6.32615C16.1824 6.32615 19.083 9.22614 19.083 12.8008C19.083 16.3755 16.1824 19.2755 12.6071 19.2755ZM12.6071 8.60087C10.2877 8.60087 8.4063 10.4817 8.4063 12.8008C8.4063 15.12 10.2877 17.0008 12.6071 17.0008C14.9266 17.0008 16.8078 15.12 16.8078 12.8008C16.8078 10.4817 14.9266 8.60087 12.6071 8.60087Z" fill="white"/>
<path d="M20.8511 19.5315C20.8511 18.6968 20.1741 18.02 19.339 18.02C18.5042 18.02 17.8272 18.6968 17.8272 19.5315C17.8272 20.3665 18.5042 21.0431 19.339 21.0431C20.1741 21.0431 20.8511 20.3665 20.8511 19.5315Z" fill="white"/>
<path d="M89.8668 19.5498C89.8328 19.4774 89.8011 19.4173 89.7716 19.3691C89.2843 18.5014 88.3532 17.4364 86.9787 16.1737L86.9496 16.1448L86.9351 16.1306L86.9204 16.1161H86.9057C86.2818 15.5282 85.8868 15.1328 85.7214 14.9304C85.4187 14.5449 85.3509 14.1546 85.5163 13.7592C85.6332 13.4604 86.0722 12.8294 86.8324 11.8655C87.2322 11.3546 87.5489 10.9451 87.7827 10.6366C89.4693 8.41968 90.2006 7.00303 89.9762 6.38611L89.8891 6.24195C89.8306 6.15515 89.6795 6.07575 89.436 6.00334C89.1921 5.93108 88.8802 5.91913 88.4999 5.96728L84.2887 5.99605C84.2205 5.97215 84.1231 5.97437 83.9962 6.00334C83.8694 6.0323 83.806 6.04684 83.806 6.04684L83.7327 6.08304L83.6745 6.12654C83.6258 6.1553 83.5721 6.20589 83.5136 6.2782C83.4554 6.35026 83.4067 6.43483 83.3677 6.53119C82.9093 7.69743 82.388 8.78175 81.8029 9.78408C81.4422 10.3818 81.1109 10.8997 80.8084 11.3383C80.5063 11.7767 80.2528 12.0998 80.0483 12.3068C79.8434 12.5141 79.6585 12.6801 79.4925 12.8055C79.3267 12.931 79.2001 12.984 79.1125 12.9647C79.0247 12.9453 78.9419 12.926 78.8636 12.9068C78.7272 12.82 78.6175 12.7019 78.5348 12.5526C78.4517 12.4032 78.3958 12.2152 78.3666 11.9887C78.3375 11.762 78.3203 11.567 78.3154 11.4031C78.3108 11.2394 78.3129 11.0078 78.3228 10.7091C78.3329 10.4102 78.3375 10.2079 78.3375 10.1019C78.3375 9.73556 78.3447 9.33801 78.3592 8.9091C78.3739 8.4802 78.3859 8.14036 78.3959 7.89001C78.4058 7.6394 78.4104 7.37426 78.4104 7.09474C78.4104 6.81522 78.3932 6.59601 78.3592 6.4369C78.3256 6.278 78.274 6.12376 78.2061 5.97422C78.1377 5.82484 78.0376 5.70928 77.9063 5.62725C77.7747 5.54532 77.6111 5.4803 77.4165 5.43199C76.8997 5.31638 76.2418 5.25385 75.4422 5.24412C73.6291 5.22488 72.4641 5.34064 71.9474 5.59125C71.7427 5.69713 71.5575 5.8418 71.3918 6.02481C71.2163 6.23693 71.1918 6.35269 71.3186 6.37173C71.9035 6.45837 72.3177 6.66563 72.5614 6.99331L72.6493 7.16695C72.7176 7.29223 72.7858 7.51402 72.8541 7.83203C72.9222 8.15004 72.9662 8.50182 72.9856 8.88717C73.0342 9.59089 73.0342 10.1933 72.9856 10.6944C72.9368 11.1957 72.8907 11.586 72.8467 11.8655C72.8027 12.145 72.7369 12.3715 72.6493 12.545C72.5614 12.7184 72.503 12.8245 72.4737 12.863C72.4444 12.9015 72.4201 12.9257 72.4007 12.9352C72.274 12.9832 72.1422 13.0077 72.0058 13.0077C71.8692 13.0077 71.7036 12.9401 71.5087 12.8051C71.3138 12.6701 71.1115 12.4847 70.9019 12.2485C70.6923 12.0123 70.4559 11.6822 70.1926 11.2581C69.9295 10.8341 69.6565 10.3329 69.3738 9.75466L69.1399 9.33527C68.9936 9.06547 68.7939 8.67262 68.5404 8.15708C68.2868 7.64133 68.0626 7.14244 67.8678 6.66052C67.7899 6.45812 67.6728 6.30403 67.5169 6.19799L67.4437 6.15449C67.395 6.11601 67.3169 6.07514 67.2098 6.03159C67.1025 5.9881 66.9905 5.9569 66.8734 5.93771L62.8668 5.96647C62.4574 5.96647 62.1796 6.05818 62.0334 6.24134L61.9748 6.32798C61.9456 6.37624 61.9308 6.45331 61.9308 6.55939C61.9308 6.66543 61.9601 6.79557 62.0186 6.94966C62.6035 8.30879 63.2395 9.61955 63.9268 10.8822C64.614 12.1448 65.2112 13.1618 65.718 13.9324C66.2248 14.7036 66.7415 15.4314 67.268 16.1156C67.7944 16.7999 68.1429 17.2385 68.3134 17.4312C68.4841 17.6242 68.6182 17.7685 68.7156 17.8649L69.0813 18.2118C69.3152 18.4432 69.6588 18.7203 70.1121 19.0431C70.5655 19.3661 71.0675 19.6841 71.6183 19.9976C72.1692 20.3106 72.81 20.566 73.5412 20.7636C74.2723 20.9613 74.9839 21.0407 75.6761 21.0024H77.3578C77.6988 20.9733 77.9572 20.8672 78.1328 20.6842L78.191 20.6118C78.2301 20.5542 78.2668 20.4649 78.3006 20.3446C78.3348 20.2241 78.3518 20.0914 78.3518 19.947C78.3418 19.5327 78.3737 19.1592 78.4466 18.8267C78.5195 18.4943 78.6026 18.2437 78.6955 18.0749C78.7883 17.9063 78.8931 17.764 79.0097 17.6487C79.1266 17.5331 79.2099 17.463 79.2588 17.4389C79.3073 17.4147 79.3461 17.3982 79.3753 17.3883C79.6093 17.3113 79.8846 17.3859 80.2018 17.6126C80.5186 17.8391 80.8158 18.1188 81.0938 18.4512C81.3717 18.7839 81.7055 19.1571 82.0954 19.5715C82.4855 19.986 82.8266 20.2942 83.1189 20.4969L83.4113 20.6703C83.6065 20.7861 83.86 20.8921 84.172 20.9885C84.4834 21.0848 84.7563 21.1089 84.9906 21.0608L88.7339 21.003C89.1041 21.003 89.3922 20.9424 89.5966 20.8222C89.8013 20.7017 89.923 20.569 89.9622 20.4246C90.0013 20.2801 90.0034 20.1161 89.9696 19.9328C89.9349 19.7499 89.9008 19.6221 89.8668 19.5498Z" fill="white"/>
<g clip-path="url(#clip0)">
<path d="M188.403 8.41064C187.956 8.41064 187.576 8.56658 187.264 8.87883C186.952 9.19097 186.796 9.56541 186.796 10.0023V16.7125C186.796 17.1595 186.952 17.5392 187.264 17.8513C187.576 18.1635 187.956 18.3193 188.403 18.3193C188.85 18.3193 189.227 18.1635 189.534 17.8513C189.841 17.5392 189.995 17.1595 189.995 16.7125V10.0023C189.995 9.56525 189.839 9.1908 189.527 8.87883C189.215 8.56674 188.84 8.41064 188.403 8.41064Z" fill="white"/>
<path d="M190.619 19.0999C190.619 19.5784 190.786 19.9841 191.119 20.317C191.452 20.6496 191.857 20.816 192.336 20.816H193.491L193.506 24.3583C193.506 24.8057 193.662 25.1852 193.974 25.4974C194.286 25.8095 194.661 25.9655 195.098 25.9655C195.545 25.9655 195.925 25.8095 196.237 25.4974C196.549 25.1852 196.705 24.8057 196.705 24.3583V20.816H198.858V24.3583C198.858 24.8057 199.014 25.1852 199.326 25.4974C199.639 25.8095 200.018 25.9655 200.466 25.9655C200.913 25.9655 201.293 25.8095 201.605 25.4974C201.917 25.1852 202.072 24.8057 202.072 24.3583V20.816H203.243C203.711 20.816 204.111 20.6499 204.444 20.317C204.777 19.9841 204.944 19.5784 204.944 19.0999V8.70715H190.619V19.0999Z" fill="white"/>
<path d="M201.324 2.38751L202.431 0.343219C202.504 0.208 202.478 0.10399 202.353 0.0312429C202.218 -0.0312287 202.114 -2.02371e-05 202.041 0.124923L200.918 2.18463C199.929 1.74771 198.884 1.52925 197.781 1.52925C196.679 1.52925 195.633 1.74771 194.645 2.18463L193.521 0.124978C193.449 3.44148e-05 193.345 -0.0311741 193.209 0.0312976C193.084 0.104045 193.059 0.208055 193.131 0.343273L194.239 2.38751C193.116 2.95959 192.221 3.75806 191.555 4.78275C190.89 5.80749 190.557 6.92849 190.557 8.14545H204.991C204.991 6.92849 204.658 5.80744 203.992 4.78275C203.326 3.75806 202.437 2.95954 201.324 2.38751ZM194.918 5.36003C194.798 5.47972 194.655 5.53952 194.489 5.53952C194.322 5.53952 194.182 5.47978 194.068 5.36003C193.953 5.24049 193.896 5.0974 193.896 4.93098C193.896 4.7645 193.953 4.62141 194.068 4.50171C194.182 4.38201 194.323 4.32233 194.489 4.32233C194.655 4.32233 194.798 4.38196 194.918 4.50171C195.038 4.62141 195.097 4.7645 195.097 4.93098C195.097 5.09746 195.038 5.24033 194.918 5.36003ZM201.496 5.36003C201.381 5.47972 201.24 5.53952 201.074 5.53952C200.907 5.53952 200.765 5.47978 200.645 5.36003C200.525 5.24049 200.466 5.0974 200.466 4.93098C200.466 4.7645 200.525 4.62141 200.645 4.50171C200.765 4.38201 200.907 4.32233 201.074 4.32233C201.24 4.32233 201.381 4.38196 201.496 4.50171C201.61 4.62141 201.667 4.7645 201.667 4.93098C201.667 5.09746 201.61 5.24033 201.496 5.36003Z" fill="white"/>
<path d="M208.299 8.87096C207.987 8.56412 207.607 8.41064 207.16 8.41064C206.723 8.41064 206.348 8.56412 206.036 8.87096C205.724 9.1779 205.568 9.55508 205.568 10.0023V16.7125C205.568 17.1595 205.724 17.5392 206.036 17.8513C206.348 18.1635 206.723 18.3193 207.16 18.3193C207.607 18.3193 207.987 18.1635 208.299 17.8513C208.611 17.5392 208.767 17.1595 208.767 16.7125V10.0023C208.767 9.55503 208.611 9.17785 208.299 8.87096Z" fill="white"/>
</g>
<path d="M145.24 15.5037C144.935 14.8027 144.763 14.0146 144.763 13.1848C144.763 12.8328 144.795 12.4938 144.854 12.1669C145.105 10.7531 145.875 9.5853 146.936 8.82827C147.127 8.69393 147.326 8.5725 147.533 8.46503C146.1 6.20506 143.766 6.0117 143.033 5.93455C141.437 5.76811 139.188 7.17876 137.967 7.17876H137.934C136.714 7.17876 134.465 5.76811 132.869 5.93455C132.075 6.01604 129.536 6.46607 128.005 8.90548C127.467 9.76131 127.053 10.8147 126.883 12.205C126.822 12.7062 126.793 13.2299 126.8 13.8108C126.807 14.3943 126.854 14.9566 126.933 15.5133C127.105 16.702 127.428 17.8196 127.844 18.8467C128.307 19.9859 128.886 21.0082 129.501 21.8783C130.863 23.8057 132.404 24.9186 133.275 24.9386C135.061 24.9785 136.613 23.7702 137.895 23.8014C137.908 23.8058 137.922 23.8058 137.934 23.8049L137.952 23.8032L137.967 23.8049C137.98 23.8058 137.993 23.8049 138.006 23.8006C139.287 23.7677 140.841 24.9768 142.63 24.9369C143.497 24.917 145.041 23.8032 146.402 21.8757C147.018 21.0057 147.597 19.9817 148.056 18.8416C148.126 18.6716 148.192 18.4991 148.258 18.3239C146.926 17.9081 145.83 16.8659 145.24 15.5037Z" fill="white"/>
<path d="M141.089 4.08213C142.462 2.45726 142.409 0.118362 142.284 0.0152289C142.161 -0.089684 139.892 0.327297 138.486 1.89715C137.08 3.46912 137.166 5.86087 137.291 5.96489C137.414 6.06897 139.717 5.7065 141.089 4.08213Z" fill="white"/>
<defs>
<clipPath id="clip0">
<rect width="25.9654" height="25.9654" fill="white" transform="translate(184.799)"/>
</clipPath>
</defs>
</svg>
