<svg width="30" height="17" viewBox="0 0 30 17" fill="none" xmlns="http://www.w3.org/2000/svg">
<path d="M28.8668 14.5498C28.8328 14.4774 28.8011 14.4173 28.7716 14.3691C28.2843 13.5014 27.3532 12.4364 25.9787 11.1737L25.9496 11.1448L25.9351 11.1306L25.9204 11.1161H25.9057C25.2818 10.5282 24.8868 10.1328 24.7214 9.93042C24.4187 9.54486 24.3509 9.15459 24.5163 8.75916C24.6332 8.4604 25.0722 7.82945 25.8324 6.86545C26.2322 6.35456 26.5489 5.94511 26.7827 5.63662C28.4693 3.41968 29.2006 2.00303 28.9762 1.38611L28.8891 1.24195C28.8306 1.15515 28.6795 1.07575 28.436 1.00334C28.1921 0.931078 27.8802 0.919128 27.4999 0.967285L23.2887 0.996047C23.2205 0.972146 23.1231 0.974374 22.9962 1.00334C22.8694 1.0323 22.806 1.04684 22.806 1.04684L22.7327 1.08304L22.6745 1.12654C22.6258 1.1553 22.5721 1.20589 22.5136 1.2782C22.4554 1.35026 22.4067 1.43483 22.3677 1.53119C21.9093 2.69743 21.388 3.78175 20.8029 4.78408C20.4422 5.38176 20.1109 5.89973 19.8084 6.33831C19.5063 6.77673 19.2528 7.09975 19.0483 7.30681C18.8434 7.51407 18.6585 7.68012 18.4925 7.80555C18.3267 7.93103 18.2001 7.98405 18.1125 7.96465C18.0247 7.94526 17.9419 7.92601 17.8636 7.90677C17.7272 7.81998 17.6175 7.70194 17.5348 7.55256C17.4517 7.40318 17.3958 7.21516 17.3666 6.98865C17.3375 6.762 17.3203 6.56704 17.3154 6.40313C17.3108 6.23941 17.3129 6.00785 17.3228 5.70908C17.3329 5.41016 17.3375 5.20792 17.3375 5.10188C17.3375 4.73556 17.3447 4.33801 17.3592 3.9091C17.3739 3.4802 17.3859 3.14036 17.3959 2.89001C17.4058 2.6394 17.4104 2.37426 17.4104 2.09474C17.4104 1.81522 17.3932 1.59601 17.3592 1.4369C17.3256 1.278 17.274 1.12376 17.2061 0.974222C17.1377 0.82484 17.0376 0.709284 16.9063 0.62725C16.7747 0.545318 16.6111 0.480298 16.4165 0.43199C15.8997 0.316383 15.2418 0.253845 14.4422 0.244123C12.6291 0.22488 11.4641 0.340638 10.9474 0.591246C10.7427 0.69713 10.5575 0.841803 10.3918 1.02481C10.2163 1.23693 10.1918 1.35269 10.3186 1.37173C10.9035 1.45837 11.3177 1.66563 11.5614 1.99331L11.6493 2.16695C11.7176 2.29223 11.7858 2.51402 11.8541 2.83203C11.9222 3.15004 11.9662 3.50182 11.9856 3.88717C12.0342 4.59089 12.0342 5.19328 11.9856 5.6944C11.9368 6.19571 11.8907 6.58598 11.8467 6.8655C11.8027 7.14502 11.7369 7.37153 11.6493 7.54496C11.5614 7.71845 11.503 7.82448 11.4737 7.86297C11.4444 7.90145 11.4201 7.92571 11.4007 7.93523C11.274 7.98324 11.1422 8.00769 11.0058 8.00769C10.8692 8.00769 10.7036 7.94014 10.5087 7.80514C10.3138 7.67014 10.1115 7.4847 9.90191 7.24853C9.69228 7.0123 9.45586 6.68219 9.19256 6.25815C8.92946 5.83411 8.65648 5.33294 8.37377 4.75466L8.13986 4.33527C7.99364 4.06547 7.7939 3.67262 7.54043 3.15708C7.2868 2.64133 7.06263 2.14244 6.86775 1.66052C6.78985 1.45812 6.67282 1.30403 6.51687 1.19799L6.44368 1.15449C6.39503 1.11601 6.31692 1.07514 6.20978 1.03159C6.10248 0.988096 5.99052 0.956903 5.87344 0.937711L1.86684 0.966474C1.45742 0.966474 1.17963 1.05818 1.03335 1.24134L0.974811 1.32798C0.945567 1.37624 0.930817 1.45331 0.930817 1.55939C0.930817 1.66543 0.960061 1.79557 1.0186 1.94966C1.60349 3.30879 2.23955 4.61955 2.92677 5.88216C3.61399 7.14477 4.21117 8.16184 4.71795 8.93244C5.22484 9.70361 5.74151 10.4314 6.26796 11.1156C6.79441 11.7999 7.14289 12.2385 7.31339 12.4312C7.48409 12.6242 7.61817 12.7685 7.71564 12.8649L8.08127 13.2118C8.31523 13.4432 8.65879 13.7203 9.1121 14.0431C9.56552 14.3661 10.0675 14.6841 10.6183 14.9976C11.1692 15.3106 11.81 15.566 12.5412 15.7636C13.2723 15.9613 13.9839 16.0407 14.6761 16.0024H16.3578C16.6988 15.9733 16.9572 15.8672 17.1328 15.6842L17.191 15.6118C17.2301 15.5542 17.2668 15.4649 17.3006 15.3446C17.3348 15.2241 17.3518 15.0914 17.3518 14.947C17.3418 14.5327 17.3737 14.1592 17.4466 13.8267C17.5195 13.4943 17.6026 13.2437 17.6955 13.0749C17.7883 12.9063 17.8931 12.764 18.0097 12.6487C18.1266 12.5331 18.2099 12.463 18.2588 12.4389C18.3073 12.4147 18.3461 12.3982 18.3753 12.3883C18.6093 12.3113 18.8846 12.3859 19.2018 12.6126C19.5186 12.8391 19.8158 13.1188 20.0938 13.4512C20.3717 13.7839 20.7055 14.1571 21.0954 14.5715C21.4855 14.986 21.8266 15.2942 22.1189 15.4969L22.4113 15.6703C22.6065 15.7861 22.86 15.8921 23.172 15.9885C23.4834 16.0848 23.7563 16.1089 23.9906 16.0608L27.7339 16.003C28.1041 16.003 28.3922 15.9424 28.5966 15.8222C28.8013 15.7017 28.923 15.569 28.9622 15.4246C29.0013 15.2801 29.0034 15.1161 28.9696 14.9328C28.9349 14.7499 28.9008 14.6221 28.8668 14.5498Z" fill="white"/>
</svg>
