<svg width="40" height="40" viewBox="0 0 40 40" fill="none" xmlns="http://www.w3.org/2000/svg">
<path fill-rule="evenodd" clip-rule="evenodd" d="M20.1855 39.6069C30.9238 39.6069 39.6289 30.9018 39.6289 20.1635C39.6289 9.42523 30.9238 0.720123 20.1855 0.720123C9.44725 0.720123 0.742142 9.42523 0.742142 20.1635C0.742142 30.9018 9.44725 39.6069 20.1855 39.6069ZM20.1856 38.1395C30.1134 38.1395 38.1615 30.0914 38.1615 20.1635C38.1615 10.2357 30.1134 2.18755 20.1856 2.18755C10.2577 2.18755 2.20959 10.2357 2.20959 20.1635C2.20959 30.0914 10.2577 38.1395 20.1856 38.1395Z" fill="white" fill-opacity="0.5"/>
<path d="M28.3661 21.4901C28.0282 20.7138 27.8381 19.841 27.8381 18.9221C27.8381 18.5323 27.8726 18.1568 27.9379 17.7948C28.2164 16.2292 29.069 14.9359 30.2443 14.0975C30.4556 13.9487 30.6764 13.8142 30.9049 13.6952C29.3187 11.1925 26.7338 10.9783 25.9215 10.8929C24.1547 10.7086 21.664 12.2708 20.3119 12.2708H20.2755C18.9235 12.2708 16.4327 10.7086 14.6659 10.8929C13.7865 10.9831 10.9749 11.4815 9.27927 14.183C8.68388 15.1308 8.22499 16.2974 8.03679 17.837C7.96946 18.392 7.93687 18.972 7.94451 19.6153C7.95221 20.2615 8.00408 20.8842 8.09236 21.5007C8.28253 22.8171 8.63977 24.0548 9.10062 25.1922C9.61335 26.4538 10.2548 27.5859 10.9365 28.5495C12.4441 30.684 14.1513 31.9165 15.1153 31.9386C17.0933 31.9827 18.8121 30.6447 20.2313 30.6793C20.2467 30.6841 20.262 30.6841 20.2755 30.6832L20.2946 30.6812L20.3119 30.6832C20.3254 30.6841 20.3407 30.6832 20.3542 30.6784C21.7734 30.6419 23.4941 31.9809 25.476 31.9367C26.4361 31.9147 28.1454 30.6812 29.6529 28.5467C30.3346 27.5832 30.976 26.4492 31.4849 25.1865C31.5616 24.9983 31.6347 24.8072 31.7076 24.6133C30.2328 24.1528 29.019 22.9986 28.3661 21.4901Z" fill="white"/>
<path d="M23.7687 8.84144C25.2897 7.04201 25.2302 4.45183 25.0919 4.33762C24.9555 4.22144 22.4437 4.68321 20.8862 6.42172C19.3288 8.16257 19.4249 10.8113 19.5631 10.9265C19.6994 11.0417 22.2497 10.6403 23.7687 8.84144Z" fill="white"/>
</svg>
