<svg width="40" height="27" viewBox="0 0 40 27" fill="none" xmlns="http://www.w3.org/2000/svg">
<path d="M16.8689 7.63599H18.1213V8.8291H16.8689V7.63599Z" fill="white"/>
<path d="M19.3738 7.63599H20.6262V8.8291H19.3738V7.63599Z" fill="white"/>
<path d="M21.8787 7.63599H23.1311V8.8291H21.8787V7.63599Z" fill="white"/>
<path d="M40 20.3625H33.03C34.8812 18.9181 34.7733 16.3872 32.8341 15.0421C31.2731 13.8713 28.6754 13.6795 26.8672 14.5175C26.417 12.9319 25.0309 11.4047 23.4441 11.4539C21.087 11.4691 19.6793 14.1868 19.726 16.5046C19.7355 17.9946 20.162 19.3357 21.034 20.3624H13.126C10.7014 18.2913 9.31507 15.2738 9.31507 12.0504V3.73842H30.6849C30.6708 4.28701 30.7219 12.6308 30.6484 12.9559L31.8186 13.0539C31.9101 12.6907 31.8365 0.681426 31.8591 0H8.1409V2.56853C-1.82176 3.79251 -0.528767 18.3363 9.51742 17.6955C10.0218 18.6615 10.6576 19.559 11.4126 20.3625H8.72798V21.5556H38.8258V22.9078H1.17417V21.5556H7.47554V20.3625H0V24.1009H4.72751L7.23241 26.6462H32.7677L35.2726 24.1009H40V20.3625ZM8.20587 13.3192C4.7319 12.6705 4.68564 7.69478 8.1409 6.97549C8.16133 7.94175 8.0836 12.4488 8.20587 13.3192V13.3192ZM30.6849 1.19311V2.54531H9.31507V1.19311H30.6849ZM8.72798 16.5445C0.73182 16.2935 0.247671 4.74763 8.1409 3.76602V5.76711C3.02403 6.59648 3.22896 14.016 8.39476 14.5431C8.53612 15.2275 8.73534 15.895 8.98928 16.539C8.90223 16.5427 8.81511 16.5445 8.72798 16.5445ZM26.4845 19.4259C26.6272 19.1514 26.7486 18.8595 26.8475 18.5541C27.7412 18.8251 28.9759 18.673 29.6248 18.3257C29.9711 18.1749 30.2447 18.0558 30.8548 18.0558C31.8813 18.0484 32.0649 18.4469 32.9733 18.6218C31.9533 20.5721 28.2265 20.9184 26.4845 19.4259V19.4259ZM29.3933 15.1923C31.285 15.1923 32.9068 16.1925 33.1565 17.4425C32.3007 17.2162 32.0621 16.8597 30.8548 16.8627C30.0037 16.8627 29.5567 17.0573 29.1623 17.229C28.816 17.3798 28.5424 17.499 27.9323 17.499C27.5654 17.499 27.3166 17.4542 27.1065 17.388C27.1768 16.8433 27.1808 16.2634 27.118 15.7166C27.7804 15.3733 28.5649 15.1923 29.3933 15.1923ZM25.9883 16.5047C25.9883 18.4269 25.0038 20.0748 23.7738 20.3286C23.8221 20.0928 23.8977 19.9134 23.9839 19.7091C24.4633 18.7584 24.4614 17.2158 23.9839 16.2695C23.8355 15.9176 23.7183 15.6396 23.7183 15.0197C23.7112 13.9764 24.1032 13.7902 24.2753 12.8671C25.2608 13.4026 25.9883 14.8524 25.9883 16.5047ZM23.1147 12.6809C23.0664 12.9166 22.9908 13.0958 22.9047 13.3C22.4252 14.2507 22.4272 15.7932 22.9047 16.7394C23.0531 17.0914 23.1703 17.3693 23.1703 17.9894C23.1774 19.0327 22.7854 19.2191 22.6132 20.1424C20.1747 18.8186 20.3889 13.3616 23.1147 12.6809V12.6809ZM32.2813 25.4531H7.71867L6.38795 24.1009H33.612L32.2813 25.4531Z" fill="white"/>
</svg>
