<svg width="39" height="39" viewBox="0 0 39 39" fill="none" xmlns="http://www.w3.org/2000/svg">
<path fill-rule="evenodd" clip-rule="evenodd" d="M19.5566 38.8868C30.2949 38.8868 39 30.1817 39 19.4434C39 8.7051 30.2949 0 19.5566 0C8.81831 0 0.113205 8.7051 0.113205 19.4434C0.113205 30.1817 8.81831 38.8868 19.5566 38.8868ZM19.5566 37.4194C29.4845 37.4194 37.5326 29.3713 37.5326 19.4434C37.5326 9.51554 29.4845 1.46743 19.5566 1.46743C9.62875 1.46743 1.58063 9.51554 1.58063 19.4434C1.58063 29.3713 9.62875 37.4194 19.5566 37.4194Z" fill="white" fill-opacity="0.5"/>
<g clip-path="url(#clip0)">
<path d="M8.7324 13.6309C8.19903 13.6309 7.74583 13.8168 7.37378 14.1892C7.00173 14.5615 6.81557 15.008 6.81557 15.529V23.5314C6.81557 24.0645 7.00166 24.5173 7.37378 24.8895C7.74583 25.2618 8.19877 25.4476 8.73221 25.4476C9.26578 25.4476 9.71546 25.2618 10.0814 24.8895C10.4476 24.5173 10.6305 24.0645 10.6305 23.5314V15.529C10.6305 15.0078 10.4443 14.5613 10.0723 14.1892C9.70014 13.817 9.25333 13.6309 8.7324 13.6309Z" fill="white"/>
<path d="M11.3753 26.3784C11.3753 26.949 11.5738 27.4329 11.9708 27.8299C12.3678 28.2266 12.8515 28.425 13.4223 28.425H14.7995L14.8182 32.6494C14.8182 33.183 15.0043 33.6355 15.3764 34.0078C15.7485 34.3801 16.1952 34.5661 16.7162 34.5661C17.2499 34.5661 17.7026 34.3801 18.0749 34.0078C18.4471 33.6355 18.6331 33.183 18.6331 32.6494V28.425H21.201V32.6494C21.201 33.183 21.387 33.6355 21.7591 34.0078C22.1316 34.3801 22.5844 34.5661 23.1179 34.5661C23.6511 34.5661 24.1039 34.3801 24.4759 34.0078C24.848 33.6355 25.0338 33.183 25.0338 32.6494V28.425H26.4297C26.9876 28.425 27.4654 28.227 27.8624 27.8299C28.2594 27.4329 28.458 26.949 28.458 26.3784V13.9844H11.3753V26.3784Z" fill="white"/>
<path d="M24.141 6.44785L25.4618 4.0099C25.5489 3.84864 25.5176 3.7246 25.369 3.63785C25.2075 3.56334 25.0835 3.60056 24.997 3.74956L23.6569 6.2059C22.4783 5.68484 21.2318 5.42432 19.9165 5.42432C18.6016 5.42432 17.3547 5.68484 16.176 6.2059L14.8362 3.74963C14.7496 3.60063 14.6254 3.56341 14.4641 3.63791C14.3152 3.72467 14.2844 3.8487 14.3712 4.00996L15.6925 6.44785C14.3524 7.13009 13.2858 8.08232 12.4916 9.30432C11.6976 10.5264 11.3005 11.8632 11.3005 13.3146H28.5144C28.5144 11.8632 28.1174 10.5263 27.3233 9.30432C26.529 8.08232 25.4688 7.13003 24.141 6.44785ZM16.5017 9.99276C16.3592 10.1355 16.1887 10.2068 15.9901 10.2068C15.7916 10.2068 15.6242 10.1356 15.4876 9.99276C15.3513 9.85021 15.2829 9.67957 15.2829 9.48109C15.2829 9.28255 15.3513 9.11191 15.4876 8.96916C15.624 8.82642 15.7917 8.75524 15.9901 8.75524C16.1884 8.75524 16.359 8.82635 16.5017 8.96916C16.6445 9.11191 16.7158 9.28255 16.7158 9.48109C16.7158 9.67963 16.6445 9.85001 16.5017 9.99276ZM24.3459 9.99276C24.2091 10.1355 24.0416 10.2068 23.8432 10.2068C23.6446 10.2068 23.4744 10.1356 23.3316 9.99276C23.1889 9.85021 23.1178 9.67957 23.1178 9.48109C23.1178 9.28255 23.1889 9.11191 23.3316 8.96916C23.4744 8.82642 23.6446 8.75524 23.8432 8.75524C24.0416 8.75524 24.2091 8.82635 24.3459 8.96916C24.482 9.11191 24.5505 9.28255 24.5505 9.48109C24.5505 9.67963 24.4822 9.85001 24.3459 9.99276Z" fill="white"/>
<path d="M32.4592 14.1798C32.0872 13.8139 31.6344 13.6309 31.1008 13.6309C30.58 13.6309 30.1333 13.8139 29.7613 14.1798C29.389 14.5459 29.2028 14.9957 29.2028 15.529V23.5314C29.2028 24.0645 29.389 24.5173 29.7613 24.8895C30.1333 25.2618 30.58 25.4476 31.1008 25.4476C31.6344 25.4476 32.0872 25.2618 32.4592 24.8895C32.8318 24.5173 33.0177 24.0645 33.0177 23.5314V15.529C33.0177 14.9956 32.8318 14.5458 32.4592 14.1798Z" fill="white"/>
</g>
<defs>
<clipPath id="clip0">
<rect width="30.9654" height="30.9654" fill="white" transform="translate(4.43395 3.60063)"/>
</clipPath>
</defs>
</svg>
