<svg width="39" height="40" viewBox="0 0 39 40" fill="none" xmlns="http://www.w3.org/2000/svg">
<path d="M32.3416 24.9955C32.2826 26.3347 32.0659 27.2554 31.7557 28.0532C31.4355 28.9 30.9431 29.6582 30.2979 30.2885C29.6675 30.9285 28.9042 31.4259 28.067 31.741C27.2644 32.0512 26.3483 32.2678 25.0089 32.3268C23.6594 32.3908 23.231 32.4057 19.8084 32.4057C16.3857 32.4057 15.9573 32.3908 14.6129 32.3318C13.2734 32.2728 12.3525 32.056 11.5548 31.746C10.7076 31.4259 9.94926 30.9335 9.31886 30.2885C8.67866 29.6582 8.18138 28.895 7.86609 28.058C7.5558 27.2554 7.33919 26.3397 7.28013 25.0005C7.21608 23.6513 7.20126 23.2229 7.20126 19.801C7.20126 16.379 7.21608 15.9506 7.27513 14.6064C7.33419 13.2672 7.55099 12.3465 7.86128 11.5487C8.18138 10.7019 8.67866 9.94372 9.31886 9.31345C9.94926 8.67336 10.7126 8.17599 11.5498 7.86095C12.3525 7.55072 13.2684 7.33415 14.6081 7.27511C15.9523 7.21587 16.3809 7.20125 19.8036 7.20125C23.2262 7.20125 23.6546 7.21587 24.9991 7.27511C26.3385 7.33415 27.2594 7.55072 28.0572 7.86095C29.7514 8.51584 31.0908 9.85506 31.7458 11.5487C32.0559 12.3513 32.2727 13.2672 32.3318 14.6064C32.3909 15.9506 32.4057 16.379 32.4057 19.801C32.4057 23.2229 32.4007 23.6513 32.3416 24.9955ZM30.0715 14.7049C30.0172 13.474 29.8104 12.8093 29.6381 12.3661C29.2145 11.2681 28.3428 10.3967 27.2446 9.97315C26.8014 9.80082 26.1317 9.59406 24.9054 9.54001C23.5757 9.48078 23.1769 9.46616 19.8134 9.46616C16.4498 9.46616 16.046 9.48078 14.7212 9.54001C13.49 9.59406 12.8252 9.80082 12.382 9.97315C11.8354 10.1751 11.338 10.4951 10.9342 10.9137C10.5156 11.3224 10.1955 11.8147 9.9935 12.3611C9.82114 12.8043 9.61434 13.474 9.56029 14.6999C9.50104 16.0293 9.48642 16.4282 9.48642 19.7911C9.48642 23.1541 9.50104 23.5578 9.56029 24.8822C9.61434 26.1131 9.82114 26.7778 9.9935 27.2209C10.1955 27.7676 10.5156 28.2647 10.9392 28.6686C11.3478 29.0872 11.8402 29.4072 12.387 29.6089C12.8302 29.7813 13.5 29.988 14.7262 30.0423C16.0558 30.1013 16.4548 30.1161 19.8182 30.1161C23.1868 30.1161 23.5855 30.1013 24.9104 30.0423C26.1415 29.988 26.8064 29.7813 27.2496 29.6089C27.7961 29.4072 28.2936 29.0872 28.6974 28.6686C29.116 28.2599 29.4361 27.7676 29.6381 27.2209C29.8104 26.7778 30.0172 26.1083 30.0715 24.8822C30.1305 23.5528 30.1453 23.1541 30.1453 19.7911C30.1453 16.4282 30.1305 16.0343 30.0715 14.7049Z" fill="white"/>
<path d="M19.8083 26.2756C16.2331 26.2756 13.3324 23.3756 13.3324 19.801C13.3324 16.2263 16.2331 13.3263 19.8083 13.3263C23.3837 13.3263 26.2842 16.2263 26.2842 19.801C26.2842 23.3756 23.3837 26.2756 19.8083 26.2756ZM19.8083 15.601C17.4889 15.601 15.6076 17.4818 15.6076 19.801C15.6076 22.1201 17.4889 24.0009 19.8083 24.0009C22.1279 24.0009 24.0091 22.1201 24.0091 19.801C24.0091 17.4818 22.1279 15.601 19.8083 15.601V15.601Z" fill="white"/>
<path d="M28.0523 26.5316C28.0523 25.6969 27.3754 25.0201 26.5403 25.0201C25.7054 25.0201 25.0285 25.6969 25.0285 26.5316C25.0285 27.3665 25.7054 28.0432 26.5403 28.0432C27.3754 28.0432 28.0523 27.3665 28.0523 26.5316V26.5316Z" fill="white"/>
<path fill-rule="evenodd" clip-rule="evenodd" d="M19.4434 39.6069C30.1817 39.6069 38.8868 30.9018 38.8868 20.1635C38.8868 9.42523 30.1817 0.720123 19.4434 0.720123C8.7051 0.720123 0 9.42523 0 20.1635C0 30.9018 8.7051 39.6069 19.4434 39.6069ZM19.4434 38.1395C29.3713 38.1395 37.4194 30.0914 37.4194 20.1635C37.4194 10.2357 29.3713 2.18755 19.4434 2.18755C9.51554 2.18755 1.46743 10.2357 1.46743 20.1635C1.46743 30.0914 9.51554 38.1395 19.4434 38.1395Z" fill="white" fill-opacity="0.5"/>
</svg>
