<svg width="35" height="35" viewBox="0 0 35 35" fill="none" xmlns="http://www.w3.org/2000/svg">
<path d="M34.911 24.7099C34.829 26.5696 34.5282 27.8481 34.0974 28.9559C33.6528 30.1319 32.969 31.1847 32.073 32.06C31.1976 32.9488 30.1376 33.6395 28.9751 34.077C27.8606 34.5078 26.5885 34.8085 24.7285 34.8905C22.8545 34.9794 22.2596 35 17.5068 35C12.754 35 12.1591 34.9794 10.2921 34.8974C8.43204 34.8154 7.15328 34.5144 6.04548 34.0839C4.86903 33.6395 3.81599 32.9558 2.9406 32.06C2.05158 31.1847 1.36104 30.125 0.923211 28.9626C0.492326 27.8481 0.191534 26.5765 0.109524 24.7168C0.0205692 22.8432 0 22.2484 0 17.4965C0 12.7446 0.0205692 12.1498 0.102579 10.2832C0.184589 8.42349 0.485647 7.14497 0.916532 6.03712C1.36104 4.86116 2.05158 3.80832 2.9406 2.93309C3.81599 2.04425 4.87597 1.35357 6.03854 0.916092C7.15328 0.485289 8.4251 0.184555 10.2854 0.102561C12.1521 0.0202997 12.7473 1.37719e-06 17.5001 1.37719e-06C22.253 1.37719e-06 22.8479 0.0202997 24.7149 0.102561C26.5749 0.184555 27.8537 0.485289 28.9615 0.916092C31.3141 1.82551 33.1741 3.6852 34.0837 6.03712C34.5144 7.15165 34.8154 8.42349 34.8974 10.2832C34.9794 12.1498 35 12.7446 35 17.4965C35 22.2484 34.9931 22.8432 34.911 24.7099ZM31.7586 10.4199C31.6833 8.71061 31.3961 7.78757 31.1568 7.17222C30.5685 5.64745 29.3582 4.4373 27.8331 3.84918C27.2176 3.60988 26.2877 3.32277 24.5848 3.24772C22.7383 3.16545 22.1846 3.14516 17.5138 3.14516C12.8429 3.14516 12.2822 3.16545 10.4425 3.24772C8.73284 3.32277 7.80963 3.60988 7.19415 3.84918C6.43523 4.12962 5.74442 4.57404 5.18371 5.15521C4.60243 5.72276 4.15792 6.40649 3.87743 7.16527C3.63808 7.78063 3.35091 8.71061 3.27585 10.413C3.19357 12.2591 3.17327 12.813 3.17327 17.4829C3.17327 22.1528 3.19357 22.7134 3.27585 24.5526C3.35091 26.2619 3.63808 27.1849 3.87743 27.8003C4.15792 28.5593 4.60243 29.2497 5.19066 29.8106C5.75805 30.3918 6.44191 30.8362 7.2011 31.1164C7.81657 31.3557 8.74673 31.6428 10.4494 31.7181C12.2959 31.8001 12.8499 31.8207 17.5204 31.8207C22.1982 31.8207 22.752 31.8001 24.5917 31.7181C26.3014 31.6428 27.2246 31.3557 27.84 31.1164C28.599 30.8362 29.2898 30.3918 29.8505 29.8106C30.4318 29.2431 30.8763 28.5593 31.1568 27.8003C31.3961 27.1849 31.6833 26.2552 31.7586 24.5526C31.8406 22.7065 31.8612 22.1528 31.8612 17.4829C31.8612 12.813 31.8406 12.266 31.7586 10.4199Z" fill="black"/>
<path d="M17.5068 26.4875C12.5421 26.4875 8.51404 22.4605 8.51404 17.4965C8.51404 12.5325 12.5421 8.50546 17.5068 8.50546C22.4717 8.50546 26.4995 12.5325 26.4995 17.4965C26.4995 22.4605 22.4717 26.4875 17.5068 26.4875ZM17.5068 11.6642C14.286 11.6642 11.6734 14.276 11.6734 17.4965C11.6734 20.717 14.286 23.3288 17.5068 23.3288C20.7279 23.3288 23.3402 20.717 23.3402 17.4965C23.3402 14.276 20.7279 11.6642 17.5068 11.6642V11.6642Z" fill="black"/>
<path d="M28.9547 26.843C28.9547 25.6839 28.0147 24.744 26.8551 24.744C25.6957 24.744 24.7557 25.6839 24.7557 26.843C24.7557 28.0024 25.6957 28.942 26.8551 28.942C28.0147 28.942 28.9547 28.0024 28.9547 26.843V26.843Z" fill="black"/>
</svg>
