<svg width="214" height="151" viewBox="0 0 214 151" fill="none" xmlns="http://www.w3.org/2000/svg">
<path d="M92.3434 49.0361H98.1419V54.4722H92.3434V49.0361Z" fill="white"/>
<path d="M103.94 49.0361H109.739V54.4722H103.94V49.0361Z" fill="white"/>
<path d="M115.537 49.0361H121.336V54.4722H115.537V49.0361Z" fill="white"/>
<path d="M199.434 107.021H167.165C175.735 100.44 175.236 88.909 166.258 82.7803C159.031 77.4457 147.004 76.572 138.633 80.3899C136.548 73.1657 130.131 66.2076 122.785 66.4315C111.872 66.5008 105.355 78.8834 105.571 89.4439C105.615 96.2324 107.59 102.343 111.627 107.02H75.0151C63.79 97.5842 57.3714 83.836 57.3714 69.1496V31.2783H156.308C156.242 33.7778 156.479 71.794 156.139 73.2752L161.556 73.7217C161.98 72.0669 161.639 17.35 161.744 14.2453H51.9353V25.9481C5.81104 31.5247 11.7972 97.7893 58.3082 94.8698C60.6432 99.2708 63.587 103.36 67.0824 107.021H54.6534V112.457H193.998V118.618H19.6814V112.457H48.8549V107.021H14.2453V124.054H36.1323L47.7293 135.651H165.95L177.547 124.054H199.434V107.021ZM52.2361 74.9303C36.1526 71.9749 35.9385 49.3043 51.9353 46.0271C52.0299 50.4296 51.6701 70.9645 52.2361 74.9303V74.9303ZM156.308 19.6814V25.8422H57.3714V19.6814H156.308ZM54.6534 89.6254C17.6334 88.4817 15.3919 35.8765 51.9353 31.4041V40.5214C28.2457 44.3002 29.1945 78.1053 53.1106 80.5066C53.7651 83.6247 54.6874 86.6664 55.8631 89.6004C55.4601 89.6171 55.0567 89.6254 54.6534 89.6254ZM136.861 102.754C137.522 101.503 138.084 100.173 138.542 98.7816C142.679 100.016 148.395 99.3234 151.4 97.7408C153.003 97.054 154.27 96.5111 157.094 96.5111C161.847 96.4778 162.697 98.2931 166.902 99.09C162.18 107.976 144.926 109.554 136.861 102.754V102.754ZM150.328 83.4646C159.086 83.4646 166.594 88.0218 167.75 93.717C163.788 92.6859 162.684 91.0616 157.094 91.075C153.154 91.075 151.085 91.9618 149.258 92.7443C147.655 93.4314 146.388 93.9743 143.564 93.9743C141.865 93.9743 140.714 93.7703 139.741 93.4687C140.066 90.987 140.085 88.3447 139.794 85.8532C142.86 84.2894 146.492 83.4646 150.328 83.4646ZM134.564 89.4442C134.564 98.2021 130.006 105.71 124.311 106.866C124.535 105.792 124.885 104.975 125.284 104.044C127.504 99.7126 127.495 92.6841 125.284 88.3726C124.597 86.769 124.054 85.5027 124.054 82.6781C124.021 77.9248 125.836 77.0761 126.633 72.8704C131.196 75.3105 134.564 81.916 134.564 89.4442ZM121.26 72.022C121.036 73.0958 120.686 73.9127 120.287 74.843C118.068 79.1744 118.077 86.2025 120.287 90.5137C120.974 92.1173 121.517 93.3836 121.517 96.2085C121.55 100.962 119.735 101.812 118.938 106.018C107.649 99.9866 108.64 75.1235 121.26 72.022V72.022ZM163.699 130.215H49.9805L43.8197 124.054H169.859L163.699 130.215Z" fill="white"/>
<rect x="14.2453" y="148.151" width="185.189" height="2.84906" fill="white"/>
<rect x="14.2453" y="1.52588e-05" width="185.189" height="2.84906" fill="white"/>
<rect y="136.755" width="122.509" height="2.84906" transform="rotate(-90 0 136.755)" fill="white"/>
<rect x="210.83" y="136.755" width="122.509" height="2.84906" transform="rotate(-90 210.83 136.755)" fill="white"/>
</svg>
