<svg width="50" height="35" viewBox="0 0 50 35" fill="none" xmlns="http://www.w3.org/2000/svg">
<path d="M49.7348 31.6088C49.6743 31.4488 49.6178 31.316 49.5654 31.2096C48.6979 29.2927 47.0402 26.9398 44.5931 24.1504L44.5414 24.0865L44.5155 24.0552L44.4894 24.023H44.4631C43.3525 22.7241 42.6492 21.8508 42.3547 21.4036C41.8158 20.5518 41.6951 19.6896 41.9896 18.8161C42.1977 18.156 42.9793 16.7621 44.3326 14.6324C45.0445 13.5038 45.6082 12.5992 46.0246 11.9177C49.0273 7.02003 50.3291 3.89035 49.9297 2.52744L49.7746 2.20894C49.6704 2.0172 49.4014 1.84179 48.968 1.68181C48.5336 1.52217 47.9784 1.49577 47.3014 1.60216L39.8041 1.6657C39.6827 1.6129 39.5092 1.61782 39.2833 1.68181C39.0576 1.7458 38.9447 1.77791 38.9447 1.77791L38.8142 1.8579L38.7107 1.95399C38.6239 2.01753 38.5284 2.12929 38.4242 2.28904C38.3205 2.44823 38.2338 2.63506 38.1645 2.84795C37.3482 5.42442 36.4202 7.8199 35.3786 10.0343C34.7364 11.3547 34.1467 12.499 33.6081 13.4679C33.0702 14.4365 32.6189 15.1501 32.2548 15.6075C31.89 16.0654 31.5609 16.4322 31.2653 16.7093C30.9701 16.9865 30.7448 17.1037 30.5888 17.0608C30.4324 17.018 30.2852 16.9755 30.1458 16.9329C29.9029 16.7412 29.7076 16.4804 29.5604 16.1504C29.4125 15.8204 29.3129 15.405 29.2608 14.9046C29.209 14.4039 29.1784 13.9732 29.1697 13.6111C29.1615 13.2494 29.1653 12.7378 29.1829 12.0778C29.2009 11.4174 29.209 10.9706 29.209 10.7364C29.209 9.92708 29.2219 9.04879 29.2477 8.10125C29.274 7.15371 29.2952 6.40295 29.313 5.84987C29.3307 5.29622 29.3389 4.71047 29.3389 4.09295C29.3389 3.47543 29.3083 2.99114 29.2477 2.63964C29.1879 2.28859 29.0961 1.94784 28.9751 1.61749C28.8533 1.28747 28.6752 1.03218 28.4414 0.850954C28.2071 0.669948 27.9159 0.526306 27.5693 0.419582C26.6494 0.164183 25.478 0.0260236 24.0546 0.00454459C20.8267 -0.037966 18.7526 0.217768 17.8327 0.771413C17.4683 1.00533 17.1385 1.32495 16.8436 1.72924C16.5311 2.19787 16.4876 2.4536 16.7131 2.49567C17.7546 2.68708 18.4919 3.14496 18.9258 3.86887L19.0822 4.25247C19.2038 4.52924 19.3253 5.01923 19.4468 5.72178C19.5682 6.42432 19.6465 7.20148 19.681 8.05281C19.7676 9.60747 19.7676 10.9383 19.681 12.0453C19.5941 13.1529 19.512 14.015 19.4337 14.6326C19.3554 15.2501 19.2383 15.7505 19.0822 16.1336C18.9258 16.5169 18.8218 16.7512 18.7696 16.8362C18.7176 16.9212 18.6742 16.9748 18.6397 16.9958C18.4141 17.1019 18.1795 17.1559 17.9367 17.1559C17.6935 17.1559 17.3986 17.0067 17.0516 16.7084C16.7047 16.4102 16.3446 16.0005 15.9714 15.4787C15.5982 14.9569 15.1773 14.2276 14.7085 13.2908C14.2401 12.354 13.7541 11.2468 13.2508 9.96926L12.8344 9.04275C12.5741 8.44671 12.2185 7.57882 11.7672 6.43987C11.3157 5.30047 10.9166 4.19833 10.5696 3.13366C10.4309 2.68652 10.2226 2.3461 9.94494 2.11184L9.81464 2.01574C9.72802 1.93072 9.58897 1.84044 9.39822 1.74424C9.20719 1.64814 9.00787 1.57923 8.79943 1.53683L1.66643 1.60037C0.937524 1.60037 0.442958 1.80297 0.182545 2.2076L0.0783246 2.39901C0.0262602 2.50562 0 2.67589 0 2.91026C0 3.14451 0.0520644 3.43202 0.156284 3.77244C1.19757 6.77503 2.32995 9.67079 3.55342 12.4602C4.77689 15.2495 5.84006 17.4964 6.7423 19.1989C7.64472 20.9025 8.56455 22.5104 9.5018 24.0218C10.4391 25.5337 11.0594 26.5026 11.363 26.9283C11.6669 27.3548 11.9056 27.6736 12.0791 27.8865L12.7301 28.6529C13.1466 29.164 13.7582 29.7762 14.5653 30.4894C15.3725 31.203 16.2662 31.9055 17.2467 32.5981C18.2275 33.2896 19.3684 33.8539 20.6702 34.2903C21.9718 34.7271 23.2387 34.9024 24.471 34.8178H27.4648C28.072 34.7535 28.532 34.5193 28.8447 34.115L28.9483 33.9549C29.0179 33.8278 29.0831 33.6303 29.1433 33.3646C29.2042 33.0985 29.2345 32.8053 29.2345 32.4864C29.2167 31.5709 29.2735 30.7459 29.4034 30.0113C29.5331 29.277 29.681 28.7234 29.8464 28.3505C30.0117 27.978 30.1983 27.6636 30.4059 27.4088C30.614 27.1534 30.7622 26.9987 30.8492 26.9454C30.9357 26.8918 31.0047 26.8555 31.0567 26.8337C31.4733 26.6634 31.9634 26.8283 32.528 27.3291C33.0922 27.8295 33.6213 28.4474 34.1162 29.1817C34.6109 29.9167 35.2052 30.7413 35.8993 31.6567C36.5938 32.5725 37.2011 33.2532 37.7215 33.701L38.242 34.0843C38.5896 34.34 39.0408 34.5743 39.5963 34.7872C40.1508 35 40.6366 35.0532 41.0537 34.9468L47.7179 34.8193C48.377 34.8193 48.8899 34.6854 49.2538 34.4197C49.6183 34.1536 49.8349 33.8603 49.9047 33.5414C49.9744 33.2221 49.9781 32.8599 49.9179 32.4549C49.8562 32.051 49.7954 31.7685 49.7348 31.6088Z" fill="black"/>
</svg>
