<svg width="40" height="40" viewBox="0 0 40 40" fill="none" xmlns="http://www.w3.org/2000/svg">
<path d="M34.068 26.5499C34.034 26.4774 34.0023 26.4173 33.9729 26.3692C33.4856 25.5015 32.5544 24.4365 31.18 23.1738L31.1509 23.1449L31.1364 23.1307L31.1217 23.1162H31.1069C30.4831 22.5282 30.0881 22.1329 29.9226 21.9305C29.62 21.5449 29.5521 21.1547 29.7176 20.7592C29.8345 20.4605 30.2735 19.8295 31.0336 18.8655C31.4335 18.3546 31.7501 17.9452 31.984 17.6367C33.6706 15.4198 34.4018 14.0031 34.1775 13.3862L34.0904 13.242C34.0318 13.1552 33.8807 13.0758 33.6373 13.0034C33.3933 12.9312 33.0815 12.9192 32.7012 12.9674L28.49 12.9961C28.4218 12.9722 28.3243 12.9744 28.1974 13.0034C28.0707 13.0324 28.0073 13.0469 28.0073 13.0469L27.934 13.0831L27.8758 13.1266C27.827 13.1554 27.7734 13.206 27.7149 13.2783C27.6566 13.3503 27.6079 13.4349 27.569 13.5313C27.1105 14.6975 26.5892 15.7818 26.0042 16.7842C25.6435 17.3818 25.3122 17.8998 25.0097 18.3384C24.7076 18.7768 24.4541 19.0998 24.2495 19.3069C24.0447 19.5141 23.8598 19.6802 23.6937 19.8056C23.5279 19.9311 23.4014 19.9841 23.3138 19.9647C23.2259 19.9453 23.1432 19.9261 23.0649 19.9068C22.9285 19.8201 22.8188 19.702 22.7361 19.5526C22.653 19.4033 22.5971 19.2152 22.5678 18.9887C22.5387 18.7621 22.5215 18.5671 22.5166 18.4032C22.5121 18.2395 22.5142 18.0079 22.524 17.7092C22.5342 17.4102 22.5387 17.208 22.5387 17.102C22.5387 16.7356 22.546 16.3381 22.5605 15.9092C22.5752 15.4803 22.5871 15.1404 22.5971 14.8901C22.6071 14.6395 22.6117 14.3743 22.6117 14.0948C22.6117 13.8153 22.5945 13.5961 22.5605 13.437C22.5269 13.2781 22.4753 13.1238 22.4073 12.9743C22.339 12.8249 22.2389 12.7094 22.1076 12.6273C21.976 12.5454 21.8124 12.4804 21.6177 12.4321C21.101 12.3165 20.443 12.2539 19.6435 12.2442C17.8304 12.225 16.6654 12.3407 16.1487 12.5913C15.944 12.6972 15.7587 12.8419 15.5931 13.0249C15.4176 13.237 15.3931 13.3528 15.5198 13.3718C16.1048 13.4584 16.5189 13.6657 16.7627 13.9934L16.8505 14.167C16.9188 14.2923 16.9871 14.5141 17.0553 14.8321C17.1235 15.1501 17.1675 15.5019 17.1869 15.8873C17.2355 16.591 17.2355 17.1934 17.1869 17.6945C17.138 18.1958 17.0919 18.5861 17.048 18.8656C17.004 19.1451 16.9382 19.3716 16.8505 19.545C16.7627 19.7185 16.7042 19.8246 16.6749 19.863C16.6457 19.9015 16.6213 19.9258 16.602 19.9353C16.4753 19.9833 16.3435 20.0078 16.2071 20.0078C16.0705 20.0078 15.9049 19.9402 15.7099 19.8052C15.5151 19.6702 15.3128 19.4848 15.1032 19.2486C14.8935 19.0124 14.6571 18.6823 14.3938 18.2582C14.1307 17.8342 13.8577 17.333 13.575 16.7547L13.3411 16.3353C13.1949 16.0655 12.9952 15.6727 12.7417 15.1572C12.4881 14.6414 12.2639 14.1425 12.069 13.6606C11.9911 13.4582 11.8741 13.3041 11.7181 13.1981L11.6449 13.1546C11.5963 13.1161 11.5182 13.0752 11.411 13.0317C11.3037 12.9882 11.1918 12.957 11.0747 12.9378L7.06811 12.9666C6.65869 12.9666 6.38089 13.0583 6.23462 13.2414L6.17607 13.3281C6.14683 13.3763 6.13208 13.4534 6.13208 13.5595C6.13208 13.6655 6.16132 13.7956 6.21986 13.9497C6.80475 15.3089 7.44081 16.6196 8.12803 17.8822C8.81525 19.1448 9.41243 20.1619 9.91921 20.9325C10.4261 21.7037 10.9428 22.4315 11.4692 23.1156C11.9957 23.8 12.3442 24.2386 12.5147 24.4313C12.6854 24.6243 12.8194 24.7686 12.9169 24.865L13.2825 25.2119C13.5165 25.4433 13.8601 25.7203 14.3134 26.0432C14.7668 26.3662 15.2688 26.6842 15.8195 26.9977C16.3704 27.3107 17.0113 27.5661 17.7425 27.7636C18.4736 27.9614 19.1852 28.0407 19.8774 28.0025H21.559C21.9001 27.9733 22.1585 27.8673 22.3341 27.6843L22.3923 27.6118C22.4314 27.5543 22.468 27.4649 22.5018 27.3447C22.536 27.2242 22.553 27.0915 22.553 26.9471C22.543 26.5327 22.575 26.1593 22.6479 25.8268C22.7208 25.4944 22.8038 25.2438 22.8967 25.075C22.9896 24.9064 23.0944 24.7641 23.211 24.6487C23.3279 24.5331 23.4112 24.4631 23.46 24.439C23.5086 24.4147 23.5473 24.3983 23.5766 24.3884C23.8105 24.3113 24.0859 24.386 24.403 24.6127C24.7199 24.8392 25.0171 25.1189 25.2951 25.4513C25.573 25.7839 25.9068 26.1572 26.2966 26.5716C26.6868 26.9861 27.0279 27.2942 27.3202 27.4969L27.6125 27.6704C27.8078 27.7862 28.0612 27.8922 28.3733 27.9886C28.6847 28.0849 28.9576 28.109 29.1919 28.0608L32.9351 28.0031C33.3054 28.0031 33.5935 27.9425 33.7978 27.8222C34.0026 27.7018 34.1242 27.569 34.1635 27.4247C34.2026 27.2802 34.2047 27.1162 34.1709 26.9329C34.1362 26.75 34.102 26.6222 34.068 26.5499Z" fill="white"/>
<path fill-rule="evenodd" clip-rule="evenodd" d="M19.8145 39.6069C30.5527 39.6069 39.2579 30.9018 39.2579 20.1635C39.2579 9.42523 30.5527 0.720123 19.8145 0.720123C9.07617 0.720123 0.371063 9.42523 0.371063 20.1635C0.371063 30.9018 9.07617 39.6069 19.8145 39.6069ZM19.8145 38.1395C29.7423 38.1395 37.7904 30.0914 37.7904 20.1635C37.7904 10.2357 29.7423 2.18755 19.8145 2.18755C9.88662 2.18755 1.83851 10.2357 1.83851 20.1635C1.83851 30.0914 9.88662 38.1395 19.8145 38.1395Z" fill="white" fill-opacity="0.5"/>
</svg>
